<svg width="48" height="48" viewBox="0 0 48 48" fill="none" xmlns="http://www.w3.org/2000/svg">
<path d="M15.7969 8.01764C16.8359 7.8091 17.9714 8.0598 18.916 8.68952C19.8602 9.31935 20.5274 10.2714 20.7344 11.3106C20.9429 12.351 20.6755 13.3955 20.0254 14.2364C19.8783 14.427 19.731 14.6181 19.584 14.8087C17.2155 17.878 14.8471 20.9483 12.4785 24.0176C14.8469 27.0868 17.2156 30.1575 19.584 33.2266C19.7309 33.417 19.8785 33.6085 20.0254 33.7989C20.6753 34.6399 20.9432 35.6843 20.7344 36.7247C20.5272 37.7638 19.8604 38.7161 18.916 39.3458C17.9716 39.9753 16.8358 40.226 15.7969 40.0176C14.7562 39.8103 13.8955 39.1598 13.3691 38.2364C13.2499 38.0276 13.129 37.8183 13.0098 37.6094C10.8596 33.8434 8.70877 30.0747 6.55859 26.3087C6.43953 26.1001 6.32024 25.8903 6.20117 25.6817C5.9885 25.3084 5.86804 24.8855 5.83789 24.4512V23.5801C5.8682 23.147 5.98898 22.7262 6.20117 22.3536C6.32036 22.1448 6.43941 21.9354 6.55859 21.7266C8.70889 17.9604 10.8595 14.1921 13.0098 10.4258C13.1291 10.2168 13.2498 10.0079 13.3691 9.79889C13.8955 8.87496 14.7558 8.22508 15.7969 8.01764Z" fill="#C793FF"/>
<path d="M27.8789 8.68952C28.8236 8.05969 29.9588 7.80891 30.998 8.01764C32.0389 8.2252 32.8995 8.8751 33.4258 9.79889C33.545 10.0077 33.666 10.2171 33.7852 10.4258C35.9353 14.1919 38.0862 17.9606 40.2363 21.7266C40.3554 21.9351 40.4747 22.1451 40.5938 22.3536C40.8763 22.8501 40.9958 23.4332 40.957 24.0157C40.9961 24.5992 40.877 25.1845 40.5938 25.6817C40.4747 25.8903 40.3554 26.1001 40.2363 26.3087C38.0861 30.0747 35.9354 33.8434 33.7852 37.6094C33.6659 37.8183 33.545 38.0275 33.4258 38.2364C32.8994 39.1597 32.0387 39.8102 30.998 40.0176C29.9592 40.2262 28.8234 39.9751 27.8789 39.3458C26.9346 38.7162 26.2679 37.7637 26.0605 36.7247C25.8517 35.6842 26.1195 34.64 26.7695 33.7989C26.9165 33.6084 27.064 33.4171 27.2109 33.2266C29.5794 30.1574 31.9479 27.0868 34.3164 24.0176C31.9479 20.9484 29.5794 17.8779 27.2109 14.8087C27.064 14.6183 26.9164 14.4268 26.7695 14.2364C26.1194 13.3955 25.8521 12.351 26.0605 11.3106C26.2675 10.2712 26.9344 9.31935 27.8789 8.68952Z" fill="#C793FF"/>
</svg>
