<svg width="48" height="48" viewBox="0 0 48 48" fill="none" xmlns="http://www.w3.org/2000/svg">
<path fill-rule="evenodd" clip-rule="evenodd" d="M24.6484 6.01758C31.2802 6.35989 35.6563 11.9446 35.9199 18.7148C35.9604 19.7553 35.981 20.8746 35.9902 22.0742C37.3015 22.1621 38.2248 22.3571 39 22.8047C39.9118 23.3312 40.6688 24.0882 41.1953 25C41.9992 26.3923 42 28.2615 42 32C42 35.7385 41.9992 37.6077 41.1953 39C40.6688 39.9118 39.9118 40.6688 39 41.1953C37.6077 41.9992 35.7385 42 32 42H16C12.2615 42 10.3923 41.9992 9 41.1953C8.08817 40.6688 7.33122 39.9118 6.80469 39C6.00084 37.6077 6 35.7385 6 32C6 28.2615 6.00084 26.3923 6.80469 25C7.33122 24.0882 8.08817 23.3312 9 22.8047C9.77482 22.3573 10.6976 22.1622 12.0078 22.0742C12.0114 21.6262 12.0133 21.1894 12.0215 20.7637L12.0801 18.7148C12.3522 11.7263 17.0062 6 24 6L24.6484 6.01758ZM24 12C21.0051 12 18.2555 14.343 18.0762 18.9473C18.0394 19.8904 18.0195 20.9076 18.0098 22H29.9902C29.9805 20.9076 29.9606 19.8904 29.9238 18.9473C29.7445 14.343 26.9949 12 24 12Z" fill="#9DFF93"/>
</svg>
