<svg width="48" height="48" viewBox="0 0 48 48" fill="none" xmlns="http://www.w3.org/2000/svg">
<path fill-rule="evenodd" clip-rule="evenodd" d="M24 6C27.6396 6 30.4349 6.36141 32.4453 6.77734C35.0722 7.32088 36.8744 9.45216 37.2559 12.1074C37.6331 14.7338 38 18.6599 38 24C38 29.3401 37.6331 33.2662 37.2559 35.8926C36.8744 38.5478 35.0722 40.6791 32.4453 41.2227C30.4349 41.6386 27.6396 42 24 42C20.3604 42 17.5651 41.6386 15.5547 41.2227C12.9278 40.6791 11.1256 38.5478 10.7441 35.8926C10.3669 33.2662 10 29.3401 10 24C10 18.6599 10.3669 14.7338 10.7441 12.1074C11.1256 9.45216 12.9278 7.32088 15.5547 6.77734C17.5651 6.36141 20.3604 6 24 6ZM24 30C21.7912 30.0004 20 31.7911 20 34C20 36.2089 21.7912 37.9996 24 38C26.2087 37.9995 28 36.2088 28 34C28 31.7912 26.2087 30.0005 24 30ZM24 10C22.5738 10 21.45 10.0331 20.6094 10.0742C19.3368 10.1365 18 10.7259 18 12C18 13.2741 19.3368 13.8635 20.6094 13.9258C21.45 13.9669 22.5738 14 24 14C25.4262 14 26.55 13.9669 27.3906 13.9258C28.6632 13.8635 30 13.2741 30 12C30 10.7259 28.6632 10.1365 27.3906 10.0742C26.55 10.0331 25.4262 10 24 10Z" fill="#93F6FF"/>
</svg>
