<svg width="48" height="48" viewBox="0 0 48 48" fill="none" xmlns="http://www.w3.org/2000/svg">
<path d="M39.8323 35.2664C40.8983 35.1085 41.9115 35.6 42.3401 36.5887C42.5467 37.0651 42.7667 37.6691 42.9671 38.4168C43.5663 40.6533 42.2164 42.6787 39.9983 43.3426C39.7397 43.42 39.464 43.4968 39.1722 43.575C38.8803 43.6532 38.6028 43.7237 38.3401 43.786C36.0876 44.3197 33.9063 43.2426 33.3069 41.0067C33.1064 40.2584 32.9952 39.6244 32.9358 39.1082C32.8127 38.0378 33.4436 37.106 34.4456 36.7098C35.0975 36.4521 35.9739 36.1507 37.1019 35.8485C38.2294 35.5463 39.139 35.3692 39.8323 35.2664Z" fill="#FFA893"/>
<path d="M8.29716 25.2664C8.99062 25.3692 9.90151 25.5462 11.0296 25.8485C12.1573 26.1507 13.034 26.4521 13.6858 26.7098C14.6876 27.1061 15.3187 28.0379 15.1956 29.1082C15.1362 29.6244 15.0231 30.2584 14.8226 31.0067C14.223 33.2425 12.042 34.32 9.78935 33.786C9.52711 33.7238 9.25061 33.6531 8.95927 33.575C8.66758 33.4969 8.39158 33.42 8.1331 33.3426C5.91499 32.6787 4.5651 30.6533 5.16435 28.4168C5.36476 27.6691 5.58477 27.0651 5.79131 26.5887C6.21988 25.6002 7.23141 25.1087 8.29716 25.2664Z" fill="#FFA893"/>
<path d="M31.4085 14.5985C35.3276 13.5485 38.8561 15.945 40.0296 19.8289C40.1846 20.3419 40.3409 20.8918 40.4983 21.4793C40.6558 22.067 40.796 22.6216 40.9183 23.1434C41.844 27.0938 39.9859 30.935 36.0667 31.9852C32.1478 33.0351 28.6192 30.6383 27.4456 26.7547C27.2905 26.2415 27.1324 25.6903 26.9749 25.1024C26.8175 24.5148 26.6792 23.96 26.5569 23.4383C25.6312 19.4879 27.4893 15.6486 31.4085 14.5985Z" fill="#FFA893"/>
<path d="M8.10185 9.82893C9.27533 5.9449 12.8038 3.54832 16.7229 4.59846C20.642 5.64868 22.5002 9.48796 21.5745 13.4383C21.4522 13.9602 21.3121 14.5146 21.1546 15.1024C20.997 15.6903 20.8409 16.2415 20.6858 16.7547C19.5123 20.6382 15.9835 23.0348 12.0647 21.9852C8.14556 20.935 6.28743 17.0938 7.21318 13.1434C7.33545 12.6217 7.47371 12.0669 7.63115 11.4793C7.78861 10.8917 7.94686 10.342 8.10185 9.82893Z" fill="#FFA893"/>
</svg>
